<svg version="1.1" baseProfile="full" width="495.0" height="1089.0" viewbox="0 0 495 1089" xmlns="http://www.w3.org/2000/svg" xmlns:xlink="http://www.w3.org/1999/xlink" xmlns:ev="http://www.w3.org/2001/xml-events">
		<desc >[&lt;actor&gt;Hallgató] -&gt; [&lt;choice&gt;Github regisztrációja van?]
	
	[&lt;choice&gt;Github regisztrációja van?] -[&lt;label&gt;Igen] -&gt; [&lt;state&gt;Bejelentkezik]
	[&lt;choice&gt;Github regisztrációja van?] -[&lt;label&gt;Nem] -&gt; [&lt;state&gt;Regisztrál] -&gt; [&lt;state&gt;Bejelentkezik]
	[&lt;state&gt;Bejelentkezik] -&gt; [&lt;state&gt;Megkeresi a projekt repository-t] -&gt; [&lt;state&gt;Fork]
	
	[&lt;state&gt;Fork] -&gt; [&lt;state&gt;Klónozza a létrejött repót] -&gt; [&lt;choice&gt;Kész a házi?] -[&lt;label&gt;Még nem]-&gt; [&lt;state&gt;Kódol]
	
	[&lt;state&gt;Kódol] -&gt; [&lt;state&gt;Commit] -&gt; [&lt;choice&gt;Kész a házi?]
	
	[&lt;choice&gt;Kész a házi?] - [&lt;label&gt;Igen, kész] -&gt; [&lt;state&gt;Pull request]
	
	[&lt;state&gt;Pull request] -&gt; [&lt;actor&gt;Árpi] -&gt; [&lt;state&gt;Review]
	[&lt;state&gt;Pull request] -&gt; [&lt;actor&gt;Gábor] -&gt; [&lt;state&gt;Review]
	
	[&lt;state&gt;Review] - [&lt;state&gt;Konzultáció &amp; Jegy]-&gt; [&lt;actor&gt;Hallgató]
	</desc>
	<g stroke-width="1.0" text-align="left" font="12pt Helvetica, Arial, sans-serif" font-size="12pt" font-family="Helvetica" font-weight="bold" font-style="normal">
			<g font-family="Helvetica" font-size="12pt" font-weight="bold" font-style="normal" stroke-width="3.0" stroke-linejoin="round" stroke-linecap="round" stroke="#33322E">
				<g stroke="transparent" fill="transparent">
					<rect x="0.0" y="0.0" height="1089.0" width="495.0" stroke="none"></rect>
				</g>
			<g transform="translate(8, 8)" fill="#33322E">
					<g transform="translate(20, 20)" fill="#33322E" font-family="Helvetica" font-size="12pt" font-weight="normal" font-style="normal">
						<path d="M269.0 40.4 L162.75 75 L162.75 88.33333333333333 L162.8 88.3 " fill="none"></path>
					<path d="M157.4 81.7 L162.8 88.3 L168.1 81.7 L162.8 95.0 Z"></path>
					<path d="M134.7 141.5 L110.625 161.5 L110.625 197 L110.625 197 L110.625 232.5 L110.625 232.5 L110.625 252.5 L110.6 252.5 " fill="none"></path>
					<path d="M110.6 283.5 L110.625 303.5 L134.48105874148388 319.7472918047516 L134.5 319.7 " fill="none"></path>
					<path d="M126.0 320.4 L134.5 319.7 L132.0 311.6 L140.0 323.5 Z"></path>
					<path d="M233.6 141.5 L294.625 161.5 L294.625 181.5 L294.6 181.5 " fill="none"></path>
					<path d="M294.6 212.5 L294.625 232.5 L294.625 245.83333333333334 L294.6 245.8 " fill="none"></path>
					<path d="M289.3 239.2 L294.6 245.8 L300.0 239.2 L294.6 252.5 Z"></path>
					<path d="M294.6 283.5 L294.625 303.5 L226.76672265336188 321.7670623378628 L226.8 321.8 " fill="none"></path>
					<path d="M231.8 314.9 L226.8 321.8 L234.6 325.2 L220.3 323.5 Z"></path>
					<path d="M162.8 354.5 L162.75 374.5 L162.75 387.8333333333333 L162.8 387.8 " fill="none"></path>
					<path d="M157.4 381.2 L162.8 387.8 L168.1 381.2 L162.8 394.5 Z"></path>
					<path d="M162.8 425.5 L162.75 445.5 L162.75 458.8333333333333 L162.8 458.8 " fill="none"></path>
					<path d="M157.4 452.2 L162.8 458.8 L168.1 452.2 L162.8 465.5 Z"></path>
					<path d="M162.8 496.5 L162.75 516.5 L162.75 529.8333333333334 L162.8 529.8 " fill="none"></path>
					<path d="M157.4 523.2 L162.8 529.8 L168.1 523.2 L162.8 536.5 Z"></path>
					<path d="M162.8 567.5 L162.75 587.5 L162.75 600.8333333333334 L162.8 600.8 " fill="none"></path>
					<path d="M157.4 594.2 L162.8 600.8 L168.1 594.2 L162.8 607.5 Z"></path>
					<path d="M118.4 654.0 L80.25 674 L80.25 694 L80.3 694.0 " fill="none"></path>
					<path d="M80.3 725.0 L80.25 745 L80.25 758.3333333333334 L80.3 758.3 " fill="none"></path>
					<path d="M74.9 751.7 L80.3 758.3 L85.6 751.7 L80.3 765.0 Z"></path>
					<path d="M80.3 796.0 L80.25 816 L88.48578596715406 841.6524480944142 L88.5 841.7 " fill="none"></path>
					<path d="M81.4 836.9 L88.5 841.7 L91.5 833.7 L90.5 848.0 Z"></path>
					<path d="M117.4 848.0 L162.75 816 L162.75 780.5 L162.75 780.5 L162.75 745 L162.75 745 L162.75 709.5 L162.75 709.5 L162.75 674 L162.75 674 L162.75 660.6666666666666 L162.8 660.7 " fill="none"></path>
					<path d="M168.1 667.3 L162.8 660.7 L157.4 667.3 L162.8 654.0 Z"></path>
					<path d="M221.5 654.0 L272 674 L272 694 L272.0 694.0 " fill="none"></path>
					<path d="M272.0 725.0 L272 745 L272 758.3333333333334 L272.0 758.3 " fill="none"></path>
					<path d="M266.7 751.7 L272.0 758.3 L277.3 751.7 L272.0 765.0 Z"></path>
					<path d="M267.1 796.0 L260.75 816 L260.75 829.3333333333334 L260.8 829.3 " fill="none"></path>
					<path d="M255.4 822.7 L260.8 829.3 L266.1 822.7 L260.8 836.0 Z"></path>
					<path d="M260.8 891.0 L260.75 911 L265.0740609857154 924.6448146660352 L265.1 924.6 " fill="none"></path>
					<path d="M258.0 919.9 L265.1 924.6 L268.1 916.7 L267.1 931.0 Z"></path>
					<path d="M308.8 796.0 L356.25 816 L356.25 829.3333333333334 L356.3 829.3 " fill="none"></path>
					<path d="M350.9 822.7 L356.3 829.3 L361.6 822.7 L356.3 836.0 Z"></path>
					<path d="M356.3 891.0 L356.25 911 L313.64354930777296 928.952866463787 L313.6 929.0 " fill="none"></path>
					<path d="M317.7 921.4 L313.6 929.0 L321.9 931.3 L307.5 931.5 Z"></path>
					<path d="M272.0 962.0 L272 982 L319.0422535211268 1002 L319.0 1002.0 " fill="none"></path>
					<path d="M392.0 1002.0 L439 982 L439 946.5 L439 946.5 L439 911 L439 911 L439 863.5 L439 863.5 L439 816 L439 816 L439 780.5 L439 780.5 L439 745 L439 745 L439 709.5 L439 709.5 L439 674 L439 674 L439 630.75 L439 630.75 L439 587.5 L439 587.5 L439 552 L439 552 L439 516.5 L439 516.5 L439 481 L439 481 L439 445.5 L439 445.5 L439 410 L439 410 L439 374.5 L439 374.5 L439 339 L439 339 L439 303.5 L439 303.5 L439 268 L439 268 L439 232.5 L439 232.5 L439 197 L439 197 L439 161.5 L439 161.5 L439 118.25 L439 118.25 L439 75 L439 75 L354.2645883977748 44.15760880378775 L354.3 44.2 " fill="none"></path>
					<path d="M362.4 41.4 L354.3 44.2 L358.7 51.4 L348.0 41.9 Z"></path>
					<g data-name="Hallgató">
							<g fill="#eee8d5" stroke="#33322E" data-name="Hallgató">
								<circle r="4.0" cx="308.5" cy="12.0" data-name="Hallgató"></circle>
							<path d="M308.5 16.0 L308.5 24.0" fill="none" data-name="Hallgató"></path>
							<path d="M304.5 20.0 L312.5 20.0" fill="none" data-name="Hallgató"></path>
							<path d="M304.5 28.0 L308.5 24.0 L312.5 28.0" fill="none" data-name="Hallgató"></path>
							</g>
						<g transform="translate(269, 24)" font-family="Helvetica" font-size="12pt" font-weight="normal" font-style="normal" data-name="Hallgató">
								<g transform="translate(8, 8)" fill="#33322E" text-align="center" data-name="Hallgató">
									<text x="31.5" y="13.5" stroke="none" text-anchor="middle" data-name="Hallgató">Hallgató</text>
								
								</g>
							</g>
						</g>
					<g data-name="Github regisztrációja van?">
							<g fill="#eee8d5" stroke="#33322E" data-name="Github regisztrációja van?">
								<path d="M162.8 95.0 L325.5 118.3 L162.8 141.5 L0.0 118.3 Z" data-name="Github regisztrációja van?"></path>
							</g>
						<g transform="translate(54.25, 102.75)" font-family="Helvetica" font-size="12pt" font-weight="normal" font-style="normal" data-name="Github regisztrációja van?">
								<g transform="translate(8, 8)" fill="#33322E" text-align="center" data-name="Github regisztrációja van?">
									<text x="100.5" y="13.5" stroke="none" text-anchor="middle" data-name="Github regisztrációja van?">Github regisztrációja van?</text>
								
								</g>
							</g>
						</g>
					<g data-name="Igen">
							
						<g transform="translate(86.125, 252.5)" font-family="Helvetica" font-size="12pt" font-weight="normal" font-style="normal" data-name="Igen">
								<g transform="translate(8, 8)" fill="#33322E" text-align="center" data-name="Igen">
									<text x="16.5" y="13.5" stroke="none" text-anchor="middle" data-name="Igen">Igen</text>
								
								</g>
							</g>
						</g>
					<g data-name="Bejelentkezik">
							<g fill="#eee8d5" stroke="#33322E" data-name="Bejelentkezik">
								<rect x="104.3" y="323.5" rx="15.5" ry="15.5" height="31.0" width="117.0" data-name="Bejelentkezik"></rect>
							</g>
						<g transform="translate(104.25, 323.5)" font-family="Helvetica" font-size="12pt" font-weight="normal" font-style="normal" data-name="Bejelentkezik">
								<g transform="translate(8, 8)" fill="#33322E" text-align="center" data-name="Bejelentkezik">
									<text x="50.5" y="13.5" stroke="none" text-anchor="middle" data-name="Bejelentkezik">Bejelentkezik</text>
								
								</g>
							</g>
						</g>
					<g data-name="Nem">
							
						<g transform="translate(269.125, 181.5)" font-family="Helvetica" font-size="12pt" font-weight="normal" font-style="normal" data-name="Nem">
								<g transform="translate(8, 8)" fill="#33322E" text-align="center" data-name="Nem">
									<text x="17.5" y="13.5" stroke="none" text-anchor="middle" data-name="Nem">Nem</text>
								
								</g>
							</g>
						</g>
					<g data-name="Regisztrál">
							<g fill="#eee8d5" stroke="#33322E" data-name="Regisztrál">
								<rect x="248.6" y="252.5" rx="15.5" ry="15.5" height="31.0" width="92.0" data-name="Regisztrál"></rect>
							</g>
						<g transform="translate(248.625, 252.5)" font-family="Helvetica" font-size="12pt" font-weight="normal" font-style="normal" data-name="Regisztrál">
								<g transform="translate(8, 8)" fill="#33322E" text-align="center" data-name="Regisztrál">
									<text x="38.0" y="13.5" stroke="none" text-anchor="middle" data-name="Regisztrál">Regisztrál</text>
								
								</g>
							</g>
						</g>
					<g data-name="Megkeresi a projekt repository-t">
							<g fill="#eee8d5" stroke="#33322E" data-name="Megkeresi a projekt repository-t">
								<rect x="33.3" y="394.5" rx="15.5" ry="15.5" height="31.0" width="259.0" data-name="Megkeresi a projekt repository-t"></rect>
							</g>
						<g transform="translate(33.25, 394.5)" font-family="Helvetica" font-size="12pt" font-weight="normal" font-style="normal" data-name="Megkeresi a projekt repository-t">
								<g transform="translate(8, 8)" fill="#33322E" text-align="center" data-name="Megkeresi a projekt repository-t">
									<text x="121.5" y="13.5" stroke="none" text-anchor="middle" data-name="Megkeresi a projekt repository-t">Megkeresi a projekt repository-t</text>
								
								</g>
							</g>
						</g>
					<g data-name="Fork">
							<g fill="#eee8d5" stroke="#33322E" data-name="Fork">
								<rect x="137.3" y="465.5" rx="15.5" ry="15.5" height="31.0" width="51.0" data-name="Fork"></rect>
							</g>
						<g transform="translate(137.25, 465.5)" font-family="Helvetica" font-size="12pt" font-weight="normal" font-style="normal" data-name="Fork">
								<g transform="translate(8, 8)" fill="#33322E" text-align="center" data-name="Fork">
									<text x="17.5" y="13.5" stroke="none" text-anchor="middle" data-name="Fork">Fork</text>
								
								</g>
							</g>
						</g>
					<g data-name="Klónozza a létrejött repót">
							<g fill="#eee8d5" stroke="#33322E" data-name="Klónozza a létrejött repót">
								<rect x="59.3" y="536.5" rx="15.5" ry="15.5" height="31.0" width="207.0" data-name="Klónozza a létrejött repót"></rect>
							</g>
						<g transform="translate(59.25, 536.5)" font-family="Helvetica" font-size="12pt" font-weight="normal" font-style="normal" data-name="Klónozza a létrejött repót">
								<g transform="translate(8, 8)" fill="#33322E" text-align="center" data-name="Klónozza a létrejött repót">
									<text x="95.5" y="13.5" stroke="none" text-anchor="middle" data-name="Klónozza a létrejött repót">Klónozza a létrejött repót</text>
								
								</g>
							</g>
						</g>
					<g data-name="Kész a házi?">
							<g fill="#eee8d5" stroke="#33322E" data-name="Kész a házi?">
								<path d="M162.8 607.5 L246.8 630.8 L162.8 654.0 L78.8 630.8 Z" data-name="Kész a házi?"></path>
							</g>
						<g transform="translate(106.75, 615.25)" font-family="Helvetica" font-size="12pt" font-weight="normal" font-style="normal" data-name="Kész a házi?">
								<g transform="translate(8, 8)" fill="#33322E" text-align="center" data-name="Kész a házi?">
									<text x="48.0" y="13.5" stroke="none" text-anchor="middle" data-name="Kész a házi?">Kész a házi?</text>
								
								</g>
							</g>
						</g>
					<g data-name="Még nem">
							
						<g transform="translate(37.75, 694)" font-family="Helvetica" font-size="12pt" font-weight="normal" font-style="normal" data-name="Még nem">
								<g transform="translate(8, 8)" fill="#33322E" text-align="center" data-name="Még nem">
									<text x="34.5" y="13.5" stroke="none" text-anchor="middle" data-name="Még nem">Még nem</text>
								
								</g>
							</g>
						</g>
					<g data-name="Kódol">
							<g fill="#eee8d5" stroke="#33322E" data-name="Kódol">
								<rect x="49.8" y="765.0" rx="15.5" ry="15.5" height="31.0" width="61.0" data-name="Kódol"></rect>
							</g>
						<g transform="translate(49.75, 765)" font-family="Helvetica" font-size="12pt" font-weight="normal" font-style="normal" data-name="Kódol">
								<g transform="translate(8, 8)" fill="#33322E" text-align="center" data-name="Kódol">
									<text x="22.5" y="13.5" stroke="none" text-anchor="middle" data-name="Kódol">Kódol</text>
								
								</g>
							</g>
						</g>
					<g data-name="Commit">
							<g fill="#eee8d5" stroke="#33322E" data-name="Commit">
								<rect x="57.5" y="848.0" rx="15.5" ry="15.5" height="31.0" width="76.0" data-name="Commit"></rect>
							</g>
						<g transform="translate(57.5, 848)" font-family="Helvetica" font-size="12pt" font-weight="normal" font-style="normal" data-name="Commit">
								<g transform="translate(8, 8)" fill="#33322E" text-align="center" data-name="Commit">
									<text x="30.0" y="13.5" stroke="none" text-anchor="middle" data-name="Commit">Commit</text>
								
								</g>
							</g>
						</g>
					<g data-name="Igen, kész">
							
						<g transform="translate(226, 694)" font-family="Helvetica" font-size="12pt" font-weight="normal" font-style="normal" data-name="Igen, kész">
								<g transform="translate(8, 8)" fill="#33322E" text-align="center" data-name="Igen, kész">
									<text x="38.0" y="13.5" stroke="none" text-anchor="middle" data-name="Igen, kész">Igen, kész</text>
								
								</g>
							</g>
						</g>
					<g data-name="Pull request">
							<g fill="#eee8d5" stroke="#33322E" data-name="Pull request">
								<rect x="218.0" y="765.0" rx="15.5" ry="15.5" height="31.0" width="108.0" data-name="Pull request"></rect>
							</g>
						<g transform="translate(218, 765)" font-family="Helvetica" font-size="12pt" font-weight="normal" font-style="normal" data-name="Pull request">
								<g transform="translate(8, 8)" fill="#33322E" text-align="center" data-name="Pull request">
									<text x="46.0" y="13.5" stroke="none" text-anchor="middle" data-name="Pull request">Pull request</text>
								
								</g>
							</g>
						</g>
					<g data-name="Árpi">
							<g fill="#eee8d5" stroke="#33322E" data-name="Árpi">
								<circle r="4.0" cx="260.8" cy="848.0" data-name="Árpi"></circle>
							<path d="M260.8 852.0 L260.8 860.0" fill="none" data-name="Árpi"></path>
							<path d="M256.8 856.0 L264.8 856.0" fill="none" data-name="Árpi"></path>
							<path d="M256.8 864.0 L260.8 860.0 L264.8 864.0" fill="none" data-name="Árpi"></path>
							</g>
						<g transform="translate(236.75, 860)" font-family="Helvetica" font-size="12pt" font-weight="normal" font-style="normal" data-name="Árpi">
								<g transform="translate(8, 8)" fill="#33322E" text-align="center" data-name="Árpi">
									<text x="16.0" y="13.5" stroke="none" text-anchor="middle" data-name="Árpi">Árpi</text>
								
								</g>
							</g>
						</g>
					<g data-name="Review">
							<g fill="#eee8d5" stroke="#33322E" data-name="Review">
								<rect x="236.5" y="931.0" rx="15.5" ry="15.5" height="31.0" width="71.0" data-name="Review"></rect>
							</g>
						<g transform="translate(236.5, 931)" font-family="Helvetica" font-size="12pt" font-weight="normal" font-style="normal" data-name="Review">
								<g transform="translate(8, 8)" fill="#33322E" text-align="center" data-name="Review">
									<text x="27.5" y="13.5" stroke="none" text-anchor="middle" data-name="Review">Review</text>
								
								</g>
							</g>
						</g>
					<g data-name="Gábor">
							<g fill="#eee8d5" stroke="#33322E" data-name="Gábor">
								<circle r="4.0" cx="356.3" cy="848.0" data-name="Gábor"></circle>
							<path d="M356.3 852.0 L356.3 860.0" fill="none" data-name="Gábor"></path>
							<path d="M352.3 856.0 L360.3 856.0" fill="none" data-name="Gábor"></path>
							<path d="M352.3 864.0 L356.3 860.0 L360.3 864.0" fill="none" data-name="Gábor"></path>
							</g>
						<g transform="translate(324.75, 860)" font-family="Helvetica" font-size="12pt" font-weight="normal" font-style="normal" data-name="Gábor">
								<g transform="translate(8, 8)" fill="#33322E" text-align="center" data-name="Gábor">
									<text x="23.5" y="13.5" stroke="none" text-anchor="middle" data-name="Gábor">Gábor</text>
								
								</g>
							</g>
						</g>
					<g data-name="Konzultáció &amp; Jegy">
							<g fill="#eee8d5" stroke="#33322E" data-name="Konzultáció &amp; Jegy">
								<rect x="273.5" y="1002.0" rx="15.5" ry="15.5" height="31.0" width="164.0" data-name="Konzultáció &amp; Jegy"></rect>
							</g>
						<g transform="translate(273.5, 1002)" font-family="Helvetica" font-size="12pt" font-weight="normal" font-style="normal" data-name="Konzultáció &amp; Jegy">
								<g transform="translate(8, 8)" fill="#33322E" text-align="center" data-name="Konzultáció &amp; Jegy">
									<text x="74.0" y="13.5" stroke="none" text-anchor="middle" data-name="Konzultáció &amp; Jegy">Konzultáció &amp; Jegy</text>
								
								</g>
							</g>
						</g>
					</g>
				</g>
			</g>
		</g>
	</svg>